<mxfile host="app.diagrams.net" modified="2022-11-07T01:55:57.998Z" agent="5.0 (X11; Linux x86_64) AppleWebKit/537.36 (KHTML, like Gecko) Chrome/106.0.0.0 Safari/537.36" etag="xHV65MVZJDwjj47lgKiI" version="20.5.1" type="github" pages="3">
  <diagram id="ckF89f23HVO44DXNB2ES" name="Old Architech">
    <mxGraphModel dx="3972" dy="1932" grid="1" gridSize="10" guides="1" tooltips="1" connect="1" arrows="1" fold="1" page="1" pageScale="1" pageWidth="850" pageHeight="1100" math="0" shadow="0">
      <root>
        <mxCell id="0" />
        <mxCell id="1" parent="0" />
        <mxCell id="_kE5tXNdfVzmx50pyCrz-40" value="&lt;font style=&quot;font-size: 16px;&quot;&gt;Base Kubebuilder&lt;/font&gt;" style="rounded=1;whiteSpace=wrap;html=1;strokeColor=#ae4132;fontSize=12;fillColor=#fad9d5;" parent="1" vertex="1">
          <mxGeometry x="630" y="20" width="200" height="560" as="geometry" />
        </mxCell>
        <mxCell id="fyvyXo7SHXgF6kiXvZ8K-14" value="" style="rounded=1;whiteSpace=wrap;html=1;" parent="1" vertex="1">
          <mxGeometry x="641" y="30" width="180" height="490" as="geometry" />
        </mxCell>
        <mxCell id="fyvyXo7SHXgF6kiXvZ8K-1" value="" style="rounded=1;whiteSpace=wrap;html=1;" parent="1" vertex="1">
          <mxGeometry x="850" y="30" width="180" height="490" as="geometry" />
        </mxCell>
        <mxCell id="fyvyXo7SHXgF6kiXvZ8K-10" style="edgeStyle=orthogonalEdgeStyle;rounded=0;orthogonalLoop=1;jettySize=auto;html=1;entryX=1;entryY=0.5;entryDx=0;entryDy=0;" parent="1" source="fyvyXo7SHXgF6kiXvZ8K-2" target="fyvyXo7SHXgF6kiXvZ8K-6" edge="1">
          <mxGeometry relative="1" as="geometry" />
        </mxCell>
        <mxCell id="fyvyXo7SHXgF6kiXvZ8K-2" value="Cluster API" style="rounded=1;whiteSpace=wrap;html=1;fillColor=#dae8fc;strokeColor=#6c8ebf;" parent="1" vertex="1">
          <mxGeometry x="880" y="90" width="120" height="60" as="geometry" />
        </mxCell>
        <mxCell id="fyvyXo7SHXgF6kiXvZ8K-11" style="edgeStyle=orthogonalEdgeStyle;rounded=0;orthogonalLoop=1;jettySize=auto;html=1;entryX=1;entryY=0.5;entryDx=0;entryDy=0;" parent="1" source="fyvyXo7SHXgF6kiXvZ8K-3" target="fyvyXo7SHXgF6kiXvZ8K-7" edge="1">
          <mxGeometry relative="1" as="geometry" />
        </mxCell>
        <mxCell id="fyvyXo7SHXgF6kiXvZ8K-3" value="Bootstrap provider" style="rounded=1;whiteSpace=wrap;html=1;fillColor=#fff2cc;strokeColor=#d6b656;" parent="1" vertex="1">
          <mxGeometry x="880" y="200" width="120" height="60" as="geometry" />
        </mxCell>
        <mxCell id="fyvyXo7SHXgF6kiXvZ8K-12" style="edgeStyle=orthogonalEdgeStyle;rounded=0;orthogonalLoop=1;jettySize=auto;html=1;entryX=1;entryY=0.5;entryDx=0;entryDy=0;" parent="1" source="fyvyXo7SHXgF6kiXvZ8K-4" target="fyvyXo7SHXgF6kiXvZ8K-8" edge="1">
          <mxGeometry relative="1" as="geometry" />
        </mxCell>
        <mxCell id="fyvyXo7SHXgF6kiXvZ8K-4" value="Controlplane provider" style="rounded=1;whiteSpace=wrap;html=1;fillColor=#e1d5e7;strokeColor=#9673a6;" parent="1" vertex="1">
          <mxGeometry x="880" y="310" width="120" height="60" as="geometry" />
        </mxCell>
        <mxCell id="fyvyXo7SHXgF6kiXvZ8K-13" style="edgeStyle=orthogonalEdgeStyle;rounded=0;orthogonalLoop=1;jettySize=auto;html=1;" parent="1" source="fyvyXo7SHXgF6kiXvZ8K-5" target="fyvyXo7SHXgF6kiXvZ8K-9" edge="1">
          <mxGeometry relative="1" as="geometry" />
        </mxCell>
        <mxCell id="fyvyXo7SHXgF6kiXvZ8K-5" value="Infrastructure provider" style="rounded=1;whiteSpace=wrap;html=1;fillColor=#d5e8d4;strokeColor=#82b366;" parent="1" vertex="1">
          <mxGeometry x="880" y="420" width="120" height="60" as="geometry" />
        </mxCell>
        <mxCell id="fyvyXo7SHXgF6kiXvZ8K-6" value="Cluster API core" style="rounded=1;whiteSpace=wrap;html=1;fillColor=#dae8fc;strokeColor=#6c8ebf;" parent="1" vertex="1">
          <mxGeometry x="669" y="90" width="120" height="60" as="geometry" />
        </mxCell>
        <mxCell id="fyvyXo7SHXgF6kiXvZ8K-7" value="Kubeadm Boootstrap" style="rounded=1;whiteSpace=wrap;html=1;fillColor=#fff2cc;strokeColor=#d6b656;" parent="1" vertex="1">
          <mxGeometry x="669" y="200" width="120" height="60" as="geometry" />
        </mxCell>
        <mxCell id="fyvyXo7SHXgF6kiXvZ8K-8" value="Kubeadm Controlplane" style="rounded=1;whiteSpace=wrap;html=1;fillColor=#e1d5e7;strokeColor=#9673a6;" parent="1" vertex="1">
          <mxGeometry x="669" y="310" width="120" height="60" as="geometry" />
        </mxCell>
        <mxCell id="fyvyXo7SHXgF6kiXvZ8K-9" value="Cluster API Provider Openstack" style="rounded=1;whiteSpace=wrap;html=1;fillColor=#d5e8d4;strokeColor=#82b366;" parent="1" vertex="1">
          <mxGeometry x="669" y="420" width="120" height="60" as="geometry" />
        </mxCell>
        <mxCell id="fyvyXo7SHXgF6kiXvZ8K-16" value="Project related" style="rounded=1;whiteSpace=wrap;html=1;strokeColor=#FAFAFA;" parent="1" vertex="1">
          <mxGeometry x="670" y="40" width="120" height="40" as="geometry" />
        </mxCell>
        <mxCell id="fyvyXo7SHXgF6kiXvZ8K-17" value="Model management" style="rounded=1;whiteSpace=wrap;html=1;strokeColor=#FAFAFA;" parent="1" vertex="1">
          <mxGeometry x="880" y="40" width="120" height="40" as="geometry" />
        </mxCell>
        <mxCell id="fyvyXo7SHXgF6kiXvZ8K-18" value="" style="rounded=1;whiteSpace=wrap;html=1;strokeColor=#0D0D0D;" parent="1" vertex="1">
          <mxGeometry x="-210" width="830" height="620" as="geometry" />
        </mxCell>
        <mxCell id="fyvyXo7SHXgF6kiXvZ8K-19" value="&lt;font style=&quot;font-size: 18px;&quot;&gt;Flow deployment&lt;/font&gt;" style="rounded=1;whiteSpace=wrap;html=1;strokeColor=#FAFAFA;" parent="1" vertex="1">
          <mxGeometry x="60" y="-50" width="220" height="40" as="geometry" />
        </mxCell>
        <mxCell id="fyvyXo7SHXgF6kiXvZ8K-29" style="edgeStyle=orthogonalEdgeStyle;rounded=0;orthogonalLoop=1;jettySize=auto;html=1;exitX=1;exitY=0.5;exitDx=0;exitDy=0;entryX=0;entryY=0.5;entryDx=0;entryDy=0;fontSize=12;" parent="1" source="fyvyXo7SHXgF6kiXvZ8K-20" target="fyvyXo7SHXgF6kiXvZ8K-28" edge="1">
          <mxGeometry relative="1" as="geometry" />
        </mxCell>
        <mxCell id="fyvyXo7SHXgF6kiXvZ8K-20" value="&lt;font style=&quot;font-size: 12px;&quot;&gt;Clsuter API Core&lt;/font&gt;" style="rounded=1;whiteSpace=wrap;html=1;strokeColor=#6c8ebf;fontSize=18;fillColor=#dae8fc;" parent="1" vertex="1">
          <mxGeometry x="-130" y="233" width="120" height="60" as="geometry" />
        </mxCell>
        <mxCell id="fyvyXo7SHXgF6kiXvZ8K-21" value="1" style="ellipse;whiteSpace=wrap;html=1;strokeColor=#0D0D0D;fontSize=18;" parent="1" vertex="1">
          <mxGeometry x="-180" y="250" width="30" height="26" as="geometry" />
        </mxCell>
        <mxCell id="fyvyXo7SHXgF6kiXvZ8K-36" style="edgeStyle=orthogonalEdgeStyle;rounded=0;orthogonalLoop=1;jettySize=auto;html=1;exitX=0.5;exitY=1;exitDx=0;exitDy=0;entryX=0.5;entryY=0;entryDx=0;entryDy=0;fontSize=12;" parent="1" source="fyvyXo7SHXgF6kiXvZ8K-28" target="fyvyXo7SHXgF6kiXvZ8K-31" edge="1">
          <mxGeometry relative="1" as="geometry" />
        </mxCell>
        <mxCell id="fyvyXo7SHXgF6kiXvZ8K-37" style="edgeStyle=orthogonalEdgeStyle;rounded=0;orthogonalLoop=1;jettySize=auto;html=1;exitX=1;exitY=0.5;exitDx=0;exitDy=0;entryX=0;entryY=0.5;entryDx=0;entryDy=0;fontSize=12;" parent="1" source="fyvyXo7SHXgF6kiXvZ8K-28" target="fyvyXo7SHXgF6kiXvZ8K-32" edge="1">
          <mxGeometry relative="1" as="geometry" />
        </mxCell>
        <mxCell id="fyvyXo7SHXgF6kiXvZ8K-28" value="&lt;div style=&quot;text-align: justify;&quot;&gt;Spec :&amp;nbsp;&lt;/div&gt;&lt;div style=&quot;text-align: justify;&quot;&gt;&lt;span style=&quot;background-color: initial;&quot;&gt;&lt;br&gt;&lt;/span&gt;&lt;/div&gt;&lt;div style=&quot;text-align: justify;&quot;&gt;&lt;span style=&quot;background-color: initial;&quot;&gt;&amp;nbsp;- Controlplane reference&lt;/span&gt;&lt;br&gt;&lt;/div&gt;&lt;div style=&quot;text-align: justify;&quot;&gt;&amp;nbsp;&lt;/div&gt;&lt;div style=&quot;text-align: justify;&quot;&gt;&amp;nbsp;- Infrastructure reference&lt;/div&gt;&lt;div style=&quot;text-align: justify;&quot;&gt;&lt;br&gt;&lt;/div&gt;" style="rounded=0;whiteSpace=wrap;html=1;strokeColor=#0D0D0D;fontSize=12;" parent="1" vertex="1">
          <mxGeometry x="40" y="210" width="140" height="107" as="geometry" />
        </mxCell>
        <mxCell id="_kE5tXNdfVzmx50pyCrz-2" value="" style="edgeStyle=orthogonalEdgeStyle;rounded=0;orthogonalLoop=1;jettySize=auto;html=1;fontSize=12;entryX=0;entryY=0.5;entryDx=0;entryDy=0;" parent="1" source="fyvyXo7SHXgF6kiXvZ8K-31" target="_kE5tXNdfVzmx50pyCrz-3" edge="1">
          <mxGeometry relative="1" as="geometry">
            <mxPoint x="-130" y="460" as="targetPoint" />
          </mxGeometry>
        </mxCell>
        <mxCell id="fyvyXo7SHXgF6kiXvZ8K-31" value="Kubeadm Controlplane" style="rounded=1;whiteSpace=wrap;html=1;fillColor=#e1d5e7;strokeColor=#9673a6;" parent="1" vertex="1">
          <mxGeometry x="-190" y="360" width="120" height="60" as="geometry" />
        </mxCell>
        <mxCell id="_kE5tXNdfVzmx50pyCrz-28" style="edgeStyle=orthogonalEdgeStyle;rounded=0;orthogonalLoop=1;jettySize=auto;html=1;exitX=0.75;exitY=1;exitDx=0;exitDy=0;entryX=0.5;entryY=0;entryDx=0;entryDy=0;entryPerimeter=0;fontSize=12;" parent="1" source="fyvyXo7SHXgF6kiXvZ8K-32" target="_kE5tXNdfVzmx50pyCrz-25" edge="1">
          <mxGeometry relative="1" as="geometry">
            <Array as="points">
              <mxPoint x="370" y="240" />
              <mxPoint x="370" y="330" />
              <mxPoint x="480" y="330" />
            </Array>
          </mxGeometry>
        </mxCell>
        <mxCell id="_kE5tXNdfVzmx50pyCrz-30" style="edgeStyle=orthogonalEdgeStyle;rounded=0;orthogonalLoop=1;jettySize=auto;html=1;exitX=0.75;exitY=1;exitDx=0;exitDy=0;fontSize=12;" parent="1" source="fyvyXo7SHXgF6kiXvZ8K-32" target="_kE5tXNdfVzmx50pyCrz-26" edge="1">
          <mxGeometry relative="1" as="geometry">
            <Array as="points">
              <mxPoint x="370" y="240" />
              <mxPoint x="370" y="330" />
              <mxPoint x="570" y="330" />
            </Array>
          </mxGeometry>
        </mxCell>
        <mxCell id="_kE5tXNdfVzmx50pyCrz-31" style="edgeStyle=orthogonalEdgeStyle;rounded=0;orthogonalLoop=1;jettySize=auto;html=1;exitX=0.75;exitY=1;exitDx=0;exitDy=0;entryX=0.5;entryY=0;entryDx=0;entryDy=0;entryPerimeter=0;fontSize=12;" parent="1" source="fyvyXo7SHXgF6kiXvZ8K-32" target="_kE5tXNdfVzmx50pyCrz-27" edge="1">
          <mxGeometry relative="1" as="geometry">
            <Array as="points">
              <mxPoint x="370" y="240" />
              <mxPoint x="370" y="330" />
              <mxPoint x="390" y="330" />
            </Array>
          </mxGeometry>
        </mxCell>
        <mxCell id="_kE5tXNdfVzmx50pyCrz-32" style="edgeStyle=orthogonalEdgeStyle;rounded=0;orthogonalLoop=1;jettySize=auto;html=1;fontSize=12;" parent="1" source="fyvyXo7SHXgF6kiXvZ8K-32" target="fyvyXo7SHXgF6kiXvZ8K-40" edge="1">
          <mxGeometry relative="1" as="geometry" />
        </mxCell>
        <mxCell id="fyvyXo7SHXgF6kiXvZ8K-32" value="Cluster API Provider Openstack" style="rounded=1;whiteSpace=wrap;html=1;fillColor=#d5e8d4;strokeColor=#82b366;" parent="1" vertex="1">
          <mxGeometry x="270" y="180" width="120" height="60" as="geometry" />
        </mxCell>
        <mxCell id="fyvyXo7SHXgF6kiXvZ8K-38" value="2" style="ellipse;whiteSpace=wrap;html=1;strokeColor=#0D0D0D;fontSize=18;" parent="1" vertex="1">
          <mxGeometry x="220" y="180" width="30" height="26" as="geometry" />
        </mxCell>
        <mxCell id="fyvyXo7SHXgF6kiXvZ8K-39" value="3" style="ellipse;whiteSpace=wrap;html=1;strokeColor=#0D0D0D;fontSize=18;" parent="1" vertex="1">
          <mxGeometry x="-60" y="310" width="30" height="26" as="geometry" />
        </mxCell>
        <mxCell id="fyvyXo7SHXgF6kiXvZ8K-40" value="LoadBlancer (API Server)" style="rounded=1;whiteSpace=wrap;html=1;strokeColor=#b85450;fontSize=12;fillColor=#f8cecc;" parent="1" vertex="1">
          <mxGeometry x="220" y="40" width="150" height="60" as="geometry" />
        </mxCell>
        <mxCell id="_kE5tXNdfVzmx50pyCrz-16" style="edgeStyle=orthogonalEdgeStyle;rounded=0;orthogonalLoop=1;jettySize=auto;html=1;entryX=0.5;entryY=0;entryDx=0;entryDy=0;fontSize=12;" parent="1" source="_kE5tXNdfVzmx50pyCrz-3" target="_kE5tXNdfVzmx50pyCrz-15" edge="1">
          <mxGeometry relative="1" as="geometry" />
        </mxCell>
        <mxCell id="_kE5tXNdfVzmx50pyCrz-23" style="edgeStyle=orthogonalEdgeStyle;rounded=0;orthogonalLoop=1;jettySize=auto;html=1;entryX=0;entryY=0.25;entryDx=0;entryDy=0;fontSize=12;" parent="1" source="_kE5tXNdfVzmx50pyCrz-3" target="_kE5tXNdfVzmx50pyCrz-17" edge="1">
          <mxGeometry relative="1" as="geometry">
            <Array as="points">
              <mxPoint x="150" y="390" />
              <mxPoint x="150" y="365" />
            </Array>
          </mxGeometry>
        </mxCell>
        <mxCell id="_kE5tXNdfVzmx50pyCrz-3" value="&lt;div style=&quot;text-align: justify;&quot;&gt;&lt;br&gt;&lt;/div&gt;&lt;div style=&quot;text-align: justify;&quot;&gt;Resource : Machine&lt;/div&gt;&lt;div style=&quot;text-align: justify;&quot;&gt;&lt;br&gt;&lt;/div&gt;&lt;div style=&quot;text-align: justify;&quot;&gt;Spec :&amp;nbsp;&lt;/div&gt;&lt;div style=&quot;text-align: justify;&quot;&gt;&lt;span style=&quot;background-color: initial;&quot;&gt;&lt;br&gt;&lt;/span&gt;&lt;/div&gt;&lt;div style=&quot;text-align: justify;&quot;&gt;&lt;span style=&quot;background-color: initial;&quot;&gt;&amp;nbsp;- init cloud configuration&lt;/span&gt;&lt;br&gt;&lt;/div&gt;&lt;div style=&quot;text-align: justify;&quot;&gt;&amp;nbsp;&lt;/div&gt;&lt;div style=&quot;text-align: justify;&quot;&gt;&amp;nbsp;- VM&lt;/div&gt;&lt;div style=&quot;text-align: justify;&quot;&gt;&lt;br&gt;&lt;/div&gt;" style="rounded=0;whiteSpace=wrap;html=1;strokeColor=#0D0D0D;fontSize=12;" parent="1" vertex="1">
          <mxGeometry x="-20" y="360" width="140" height="100" as="geometry" />
        </mxCell>
        <mxCell id="_kE5tXNdfVzmx50pyCrz-7" style="edgeStyle=orthogonalEdgeStyle;rounded=0;orthogonalLoop=1;jettySize=auto;html=1;exitX=1;exitY=0.5;exitDx=0;exitDy=0;fontSize=12;" parent="1" source="_kE5tXNdfVzmx50pyCrz-4" target="_kE5tXNdfVzmx50pyCrz-5" edge="1">
          <mxGeometry relative="1" as="geometry" />
        </mxCell>
        <mxCell id="_kE5tXNdfVzmx50pyCrz-4" value="CMP" style="rounded=1;whiteSpace=wrap;html=1;strokeColor=#82b366;fontSize=12;fillColor=#d5e8d4;" parent="1" vertex="1">
          <mxGeometry x="-1970" y="390" width="120" height="60" as="geometry" />
        </mxCell>
        <mxCell id="_kE5tXNdfVzmx50pyCrz-8" style="edgeStyle=orthogonalEdgeStyle;rounded=0;orthogonalLoop=1;jettySize=auto;html=1;exitX=1;exitY=0.5;exitDx=0;exitDy=0;fontSize=12;" parent="1" source="_kE5tXNdfVzmx50pyCrz-5" target="_kE5tXNdfVzmx50pyCrz-6" edge="1">
          <mxGeometry relative="1" as="geometry" />
        </mxCell>
        <mxCell id="_kE5tXNdfVzmx50pyCrz-5" value="cụm k8s" style="rounded=1;whiteSpace=wrap;html=1;strokeColor=#d6b656;fontSize=12;fillColor=#fff2cc;" parent="1" vertex="1">
          <mxGeometry x="-1710" y="390" width="120" height="60" as="geometry" />
        </mxCell>
        <mxCell id="_kE5tXNdfVzmx50pyCrz-12" style="edgeStyle=orthogonalEdgeStyle;rounded=0;orthogonalLoop=1;jettySize=auto;html=1;exitX=0.5;exitY=1;exitDx=0;exitDy=0;fontSize=12;" parent="1" source="_kE5tXNdfVzmx50pyCrz-6" target="_kE5tXNdfVzmx50pyCrz-9" edge="1">
          <mxGeometry relative="1" as="geometry" />
        </mxCell>
        <mxCell id="_kE5tXNdfVzmx50pyCrz-13" style="edgeStyle=orthogonalEdgeStyle;rounded=0;orthogonalLoop=1;jettySize=auto;html=1;exitX=0.5;exitY=1;exitDx=0;exitDy=0;entryX=0.5;entryY=0;entryDx=0;entryDy=0;fontSize=12;" parent="1" source="_kE5tXNdfVzmx50pyCrz-6" target="_kE5tXNdfVzmx50pyCrz-10" edge="1">
          <mxGeometry relative="1" as="geometry" />
        </mxCell>
        <mxCell id="_kE5tXNdfVzmx50pyCrz-14" style="edgeStyle=orthogonalEdgeStyle;rounded=0;orthogonalLoop=1;jettySize=auto;html=1;exitX=0.5;exitY=1;exitDx=0;exitDy=0;entryX=0.5;entryY=0;entryDx=0;entryDy=0;fontSize=12;" parent="1" source="_kE5tXNdfVzmx50pyCrz-6" target="_kE5tXNdfVzmx50pyCrz-11" edge="1">
          <mxGeometry relative="1" as="geometry" />
        </mxCell>
        <mxCell id="_kE5tXNdfVzmx50pyCrz-6" value="OpenStack" style="rounded=1;whiteSpace=wrap;html=1;strokeColor=#b85450;fontSize=12;fillColor=#f8cecc;" parent="1" vertex="1">
          <mxGeometry x="-1430" y="390" width="120" height="60" as="geometry" />
        </mxCell>
        <mxCell id="_kE5tXNdfVzmx50pyCrz-9" value="cluster customer" style="rounded=1;whiteSpace=wrap;html=1;strokeColor=#0D0D0D;fontSize=12;" parent="1" vertex="1">
          <mxGeometry x="-1465" y="490" width="65" height="40" as="geometry" />
        </mxCell>
        <mxCell id="_kE5tXNdfVzmx50pyCrz-10" value="cluster customer" style="rounded=1;whiteSpace=wrap;html=1;strokeColor=#0D0D0D;fontSize=12;" parent="1" vertex="1">
          <mxGeometry x="-1390" y="490" width="65" height="40" as="geometry" />
        </mxCell>
        <mxCell id="_kE5tXNdfVzmx50pyCrz-11" value="cluster customer" style="rounded=1;whiteSpace=wrap;html=1;strokeColor=#0D0D0D;fontSize=12;" parent="1" vertex="1">
          <mxGeometry x="-1310" y="490" width="65" height="40" as="geometry" />
        </mxCell>
        <mxCell id="_kE5tXNdfVzmx50pyCrz-21" style="edgeStyle=orthogonalEdgeStyle;rounded=0;orthogonalLoop=1;jettySize=auto;html=1;fontSize=12;" parent="1" source="_kE5tXNdfVzmx50pyCrz-15" target="fyvyXo7SHXgF6kiXvZ8K-32" edge="1">
          <mxGeometry relative="1" as="geometry" />
        </mxCell>
        <mxCell id="_kE5tXNdfVzmx50pyCrz-15" value="&lt;div style=&quot;text-align: justify;&quot;&gt;&lt;span style=&quot;background-color: initial;&quot;&gt;&amp;nbsp;- infrastructure spec template&lt;/span&gt;&lt;br&gt;&lt;/div&gt;&lt;div style=&quot;text-align: justify;&quot;&gt;&amp;nbsp;&lt;/div&gt;&lt;div style=&quot;text-align: justify;&quot;&gt;&amp;nbsp;- infraSpec&lt;/div&gt;" style="rounded=0;whiteSpace=wrap;html=1;strokeColor=#0D0D0D;fontSize=12;" parent="1" vertex="1">
          <mxGeometry x="-35" y="487.5" width="170" height="45" as="geometry" />
        </mxCell>
        <mxCell id="_kE5tXNdfVzmx50pyCrz-22" style="edgeStyle=orthogonalEdgeStyle;rounded=0;orthogonalLoop=1;jettySize=auto;html=1;fontSize=12;" parent="1" source="_kE5tXNdfVzmx50pyCrz-17" target="_kE5tXNdfVzmx50pyCrz-3" edge="1">
          <mxGeometry relative="1" as="geometry">
            <Array as="points">
              <mxPoint x="160" y="380" />
              <mxPoint x="160" y="420" />
            </Array>
          </mxGeometry>
        </mxCell>
        <mxCell id="_kE5tXNdfVzmx50pyCrz-17" value="Kubeadm Boootstrap" style="rounded=1;whiteSpace=wrap;html=1;fillColor=#fff2cc;strokeColor=#d6b656;" parent="1" vertex="1">
          <mxGeometry x="180" y="350" width="120" height="60" as="geometry" />
        </mxCell>
        <mxCell id="_kE5tXNdfVzmx50pyCrz-38" style="edgeStyle=orthogonalEdgeStyle;rounded=0;orthogonalLoop=1;jettySize=auto;html=1;entryX=1;entryY=0.5;entryDx=0;entryDy=0;dashed=1;strokeColor=#FF0000;strokeWidth=2;fontSize=12;exitX=0.5;exitY=0;exitDx=0;exitDy=0;exitPerimeter=0;" parent="1" source="_kE5tXNdfVzmx50pyCrz-25" target="fyvyXo7SHXgF6kiXvZ8K-40" edge="1">
          <mxGeometry relative="1" as="geometry">
            <Array as="points">
              <mxPoint x="500" y="470" />
              <mxPoint x="500" y="300" />
              <mxPoint x="590" y="300" />
              <mxPoint x="590" y="70" />
            </Array>
          </mxGeometry>
        </mxCell>
        <mxCell id="_kE5tXNdfVzmx50pyCrz-25" value="VM (Node)" style="shape=cylinder3;whiteSpace=wrap;html=1;boundedLbl=1;backgroundOutline=1;size=15;strokeColor=#d79b00;fontSize=12;fillColor=#ffe6cc;" parent="1" vertex="1">
          <mxGeometry x="445" y="470" width="70" height="90" as="geometry" />
        </mxCell>
        <mxCell id="_kE5tXNdfVzmx50pyCrz-37" style="edgeStyle=orthogonalEdgeStyle;rounded=0;orthogonalLoop=1;jettySize=auto;html=1;entryX=1;entryY=0.5;entryDx=0;entryDy=0;fontSize=12;dashed=1;strokeColor=#FF0000;strokeWidth=2;" parent="1" target="fyvyXo7SHXgF6kiXvZ8K-40" edge="1">
          <mxGeometry relative="1" as="geometry">
            <mxPoint x="570" y="460" as="sourcePoint" />
            <Array as="points">
              <mxPoint x="570" y="470" />
              <mxPoint x="590" y="470" />
              <mxPoint x="590" y="70" />
            </Array>
          </mxGeometry>
        </mxCell>
        <mxCell id="_kE5tXNdfVzmx50pyCrz-26" value="VM (Node)" style="shape=cylinder3;whiteSpace=wrap;html=1;boundedLbl=1;backgroundOutline=1;size=15;strokeColor=#d79b00;fontSize=12;fillColor=#ffe6cc;" parent="1" vertex="1">
          <mxGeometry x="535" y="470" width="70" height="90" as="geometry" />
        </mxCell>
        <mxCell id="_kE5tXNdfVzmx50pyCrz-39" style="edgeStyle=orthogonalEdgeStyle;rounded=0;orthogonalLoop=1;jettySize=auto;html=1;entryX=1;entryY=0.5;entryDx=0;entryDy=0;dashed=1;strokeColor=#FF0000;strokeWidth=2;fontSize=12;" parent="1" source="_kE5tXNdfVzmx50pyCrz-27" target="fyvyXo7SHXgF6kiXvZ8K-40" edge="1">
          <mxGeometry relative="1" as="geometry">
            <Array as="points">
              <mxPoint x="410" y="300" />
              <mxPoint x="590" y="300" />
              <mxPoint x="590" y="70" />
            </Array>
          </mxGeometry>
        </mxCell>
        <mxCell id="_kE5tXNdfVzmx50pyCrz-27" value="VM (Node)" style="shape=cylinder3;whiteSpace=wrap;html=1;boundedLbl=1;backgroundOutline=1;size=15;strokeColor=#d79b00;fontSize=12;fillColor=#ffe6cc;" parent="1" vertex="1">
          <mxGeometry x="355" y="470" width="70" height="90" as="geometry" />
        </mxCell>
        <mxCell id="_kE5tXNdfVzmx50pyCrz-33" value="2" style="ellipse;whiteSpace=wrap;html=1;strokeColor=#0D0D0D;fontSize=18;" parent="1" vertex="1">
          <mxGeometry x="300" y="107" width="30" height="26" as="geometry" />
        </mxCell>
        <mxCell id="_kE5tXNdfVzmx50pyCrz-34" value="4" style="ellipse;whiteSpace=wrap;html=1;strokeColor=#0D0D0D;fontSize=18;" parent="1" vertex="1">
          <mxGeometry x="135" y="334" width="30" height="26" as="geometry" />
        </mxCell>
        <mxCell id="_kE5tXNdfVzmx50pyCrz-35" value="5" style="ellipse;whiteSpace=wrap;html=1;strokeColor=#0D0D0D;fontSize=18;" parent="1" vertex="1">
          <mxGeometry x="290" y="250.5" width="30" height="26" as="geometry" />
        </mxCell>
        <mxCell id="_kE5tXNdfVzmx50pyCrz-36" value="5" style="ellipse;whiteSpace=wrap;html=1;strokeColor=#0D0D0D;fontSize=18;" parent="1" vertex="1">
          <mxGeometry x="375" y="250.5" width="30" height="26" as="geometry" />
        </mxCell>
        <mxCell id="_kE5tXNdfVzmx50pyCrz-41" value="Base Kubebuilder" style="rounded=1;whiteSpace=wrap;html=1;fontSize=16;fillColor=none;strokeColor=none;" parent="1" vertex="1">
          <mxGeometry x="657" y="520" width="140" height="60" as="geometry" />
        </mxCell>
      </root>
    </mxGraphModel>
  </diagram>
  <diagram id="V2axoNiKz86mGSSzbze8" name="old -architect">
    <mxGraphModel dx="1422" dy="832" grid="1" gridSize="10" guides="1" tooltips="1" connect="1" arrows="1" fold="1" page="1" pageScale="1" pageWidth="850" pageHeight="1100" math="0" shadow="0">
      <root>
        <mxCell id="0" />
        <mxCell id="1" parent="0" />
        <mxCell id="xEQAmTpkJq4A20BQkvvX-1" value="" style="endArrow=none;html=1;rounded=0;strokeColor=#FF3333;" edge="1" parent="1">
          <mxGeometry width="50" height="50" relative="1" as="geometry">
            <mxPoint x="80" y="120" as="sourcePoint" />
            <mxPoint x="1040" y="120" as="targetPoint" />
            <Array as="points" />
          </mxGeometry>
        </mxCell>
        <mxCell id="xEQAmTpkJq4A20BQkvvX-2" value="" style="endArrow=none;html=1;rounded=0;" edge="1" parent="1">
          <mxGeometry width="50" height="50" relative="1" as="geometry">
            <mxPoint x="80" y="280" as="sourcePoint" />
            <mxPoint x="700" y="280" as="targetPoint" />
            <Array as="points" />
          </mxGeometry>
        </mxCell>
        <mxCell id="xEQAmTpkJq4A20BQkvvX-3" value="" style="endArrow=none;html=1;rounded=0;strokeColor=#0000CC;" edge="1" parent="1">
          <mxGeometry width="50" height="50" relative="1" as="geometry">
            <mxPoint x="80" y="482" as="sourcePoint" />
            <mxPoint x="700" y="482" as="targetPoint" />
            <Array as="points" />
          </mxGeometry>
        </mxCell>
        <mxCell id="xEQAmTpkJq4A20BQkvvX-4" value="Dải Public" style="text;html=1;align=center;verticalAlign=middle;resizable=0;points=[];autosize=1;strokeColor=none;fillColor=none;" vertex="1" parent="1">
          <mxGeometry x="620" y="90" width="80" height="30" as="geometry" />
        </mxCell>
        <mxCell id="xEQAmTpkJq4A20BQkvvX-5" value="VPC" style="text;html=1;align=center;verticalAlign=middle;resizable=0;points=[];autosize=1;strokeColor=none;fillColor=none;" vertex="1" parent="1">
          <mxGeometry x="635" y="250" width="50" height="30" as="geometry" />
        </mxCell>
        <mxCell id="xEQAmTpkJq4A20BQkvvX-6" value="VPC Brigde" style="text;html=1;align=center;verticalAlign=middle;resizable=0;points=[];autosize=1;strokeColor=none;fillColor=none;" vertex="1" parent="1">
          <mxGeometry x="615" y="452" width="90" height="30" as="geometry" />
        </mxCell>
        <mxCell id="xEQAmTpkJq4A20BQkvvX-7" value="" style="ellipse;whiteSpace=wrap;html=1;aspect=fixed;" vertex="1" parent="1">
          <mxGeometry x="110" y="180" width="40" height="40" as="geometry" />
        </mxCell>
        <mxCell id="xEQAmTpkJq4A20BQkvvX-8" value="" style="endArrow=none;html=1;rounded=0;strokeColor=#0000CC;entryX=1;entryY=0;entryDx=0;entryDy=0;exitX=0;exitY=1;exitDx=0;exitDy=0;" edge="1" parent="1" source="xEQAmTpkJq4A20BQkvvX-7" target="xEQAmTpkJq4A20BQkvvX-7">
          <mxGeometry width="50" height="50" relative="1" as="geometry">
            <mxPoint x="10" y="250" as="sourcePoint" />
            <mxPoint x="40" y="220" as="targetPoint" />
          </mxGeometry>
        </mxCell>
        <mxCell id="xEQAmTpkJq4A20BQkvvX-9" value="" style="endArrow=none;html=1;rounded=0;strokeColor=#0000CC;entryX=0;entryY=0;entryDx=0;entryDy=0;exitX=1;exitY=1;exitDx=0;exitDy=0;" edge="1" parent="1" source="xEQAmTpkJq4A20BQkvvX-7" target="xEQAmTpkJq4A20BQkvvX-7">
          <mxGeometry width="50" height="50" relative="1" as="geometry">
            <mxPoint x="40" y="250" as="sourcePoint" />
            <mxPoint x="90" y="200" as="targetPoint" />
          </mxGeometry>
        </mxCell>
        <mxCell id="xEQAmTpkJq4A20BQkvvX-10" value="" style="endArrow=none;html=1;rounded=0;strokeColor=#0000CC;entryX=0.5;entryY=1;entryDx=0;entryDy=0;" edge="1" parent="1" target="xEQAmTpkJq4A20BQkvvX-7">
          <mxGeometry width="50" height="50" relative="1" as="geometry">
            <mxPoint x="130" y="280" as="sourcePoint" />
            <mxPoint x="130" y="230" as="targetPoint" />
          </mxGeometry>
        </mxCell>
        <mxCell id="xEQAmTpkJq4A20BQkvvX-11" value="" style="endArrow=none;html=1;rounded=0;strokeColor=#0000CC;exitX=0.5;exitY=0;exitDx=0;exitDy=0;" edge="1" parent="1" source="xEQAmTpkJq4A20BQkvvX-7">
          <mxGeometry width="50" height="50" relative="1" as="geometry">
            <mxPoint x="110" y="170" as="sourcePoint" />
            <mxPoint x="130" y="120" as="targetPoint" />
          </mxGeometry>
        </mxCell>
        <mxCell id="xEQAmTpkJq4A20BQkvvX-21" style="edgeStyle=orthogonalEdgeStyle;rounded=0;orthogonalLoop=1;jettySize=auto;html=1;exitX=0.5;exitY=1;exitDx=0;exitDy=0;strokeColor=#000000;" edge="1" parent="1" source="xEQAmTpkJq4A20BQkvvX-12">
          <mxGeometry relative="1" as="geometry">
            <mxPoint x="220" y="280" as="targetPoint" />
          </mxGeometry>
        </mxCell>
        <mxCell id="xEQAmTpkJq4A20BQkvvX-23" style="edgeStyle=orthogonalEdgeStyle;rounded=0;orthogonalLoop=1;jettySize=auto;html=1;strokeColor=#000000;" edge="1" parent="1" source="xEQAmTpkJq4A20BQkvvX-12">
          <mxGeometry relative="1" as="geometry">
            <mxPoint x="280" y="280" as="targetPoint" />
          </mxGeometry>
        </mxCell>
        <mxCell id="xEQAmTpkJq4A20BQkvvX-12" value="Load Balancer" style="rounded=1;whiteSpace=wrap;html=1;" vertex="1" parent="1">
          <mxGeometry x="210" y="170" width="70" height="40" as="geometry" />
        </mxCell>
        <mxCell id="xEQAmTpkJq4A20BQkvvX-14" value="" style="endArrow=none;dashed=1;html=1;rounded=0;strokeColor=#0000CC;exitX=0.4;exitY=0.025;exitDx=0;exitDy=0;exitPerimeter=0;" edge="1" parent="1" source="xEQAmTpkJq4A20BQkvvX-12">
          <mxGeometry width="50" height="50" relative="1" as="geometry">
            <mxPoint x="220" y="170" as="sourcePoint" />
            <mxPoint x="238" y="120" as="targetPoint" />
          </mxGeometry>
        </mxCell>
        <mxCell id="xEQAmTpkJq4A20BQkvvX-16" value="Master 1" style="rounded=1;whiteSpace=wrap;html=1;" vertex="1" parent="1">
          <mxGeometry x="190" y="310" width="55" height="40" as="geometry" />
        </mxCell>
        <mxCell id="xEQAmTpkJq4A20BQkvvX-17" value="Master 2" style="rounded=1;whiteSpace=wrap;html=1;" vertex="1" parent="1">
          <mxGeometry x="280" y="310" width="55" height="40" as="geometry" />
        </mxCell>
        <mxCell id="xEQAmTpkJq4A20BQkvvX-18" value="" style="endArrow=none;html=1;rounded=0;strokeColor=#000000;exitX=0.382;exitY=0;exitDx=0;exitDy=0;exitPerimeter=0;" edge="1" parent="1" source="xEQAmTpkJq4A20BQkvvX-16">
          <mxGeometry width="50" height="50" relative="1" as="geometry">
            <mxPoint x="120" y="360" as="sourcePoint" />
            <mxPoint x="220" y="280" as="targetPoint" />
          </mxGeometry>
        </mxCell>
        <mxCell id="xEQAmTpkJq4A20BQkvvX-19" value="" style="endArrow=none;html=1;rounded=0;strokeColor=#000000;exitX=0.5;exitY=0;exitDx=0;exitDy=0;" edge="1" parent="1" source="xEQAmTpkJq4A20BQkvvX-17">
          <mxGeometry width="50" height="50" relative="1" as="geometry">
            <mxPoint x="221.01" y="320" as="sourcePoint" />
            <mxPoint x="280" y="280" as="targetPoint" />
          </mxGeometry>
        </mxCell>
        <mxCell id="xEQAmTpkJq4A20BQkvvX-33" style="edgeStyle=orthogonalEdgeStyle;rounded=0;orthogonalLoop=1;jettySize=auto;html=1;exitX=0.5;exitY=0;exitDx=0;exitDy=0;strokeColor=#000000;" edge="1" parent="1" source="xEQAmTpkJq4A20BQkvvX-29">
          <mxGeometry relative="1" as="geometry">
            <mxPoint x="425.5" y="300" as="targetPoint" />
          </mxGeometry>
        </mxCell>
        <mxCell id="xEQAmTpkJq4A20BQkvvX-29" value="Worker 1-1" style="rounded=1;whiteSpace=wrap;html=1;" vertex="1" parent="1">
          <mxGeometry x="370" y="300" width="65" height="40" as="geometry" />
        </mxCell>
        <mxCell id="xEQAmTpkJq4A20BQkvvX-34" value="" style="endArrow=none;html=1;rounded=0;strokeColor=#000000;exitX=0.5;exitY=0;exitDx=0;exitDy=0;" edge="1" parent="1" source="xEQAmTpkJq4A20BQkvvX-29">
          <mxGeometry width="50" height="50" relative="1" as="geometry">
            <mxPoint x="403" y="250" as="sourcePoint" />
            <mxPoint x="420" y="280" as="targetPoint" />
          </mxGeometry>
        </mxCell>
        <mxCell id="xEQAmTpkJq4A20BQkvvX-35" value="Worker 1-2" style="rounded=1;whiteSpace=wrap;html=1;" vertex="1" parent="1">
          <mxGeometry x="440" y="300" width="70" height="40" as="geometry" />
        </mxCell>
        <mxCell id="xEQAmTpkJq4A20BQkvvX-36" value="" style="endArrow=none;html=1;rounded=0;strokeColor=#000000;exitX=0.5;exitY=0;exitDx=0;exitDy=0;" edge="1" parent="1" source="xEQAmTpkJq4A20BQkvvX-35">
          <mxGeometry width="50" height="50" relative="1" as="geometry">
            <mxPoint x="413" y="260" as="sourcePoint" />
            <mxPoint x="470" y="280" as="targetPoint" />
          </mxGeometry>
        </mxCell>
        <mxCell id="xEQAmTpkJq4A20BQkvvX-37" value="Worker 2-1" style="rounded=1;whiteSpace=wrap;html=1;" vertex="1" parent="1">
          <mxGeometry x="530" y="300" width="70" height="40" as="geometry" />
        </mxCell>
        <mxCell id="xEQAmTpkJq4A20BQkvvX-38" value="" style="endArrow=none;html=1;rounded=0;strokeColor=#000000;exitX=0.5;exitY=0;exitDx=0;exitDy=0;" edge="1" parent="1" source="xEQAmTpkJq4A20BQkvvX-37">
          <mxGeometry width="50" height="50" relative="1" as="geometry">
            <mxPoint x="545" y="250" as="sourcePoint" />
            <mxPoint x="562" y="280" as="targetPoint" />
          </mxGeometry>
        </mxCell>
        <mxCell id="xEQAmTpkJq4A20BQkvvX-39" value="Worker 2-2" style="rounded=1;whiteSpace=wrap;html=1;" vertex="1" parent="1">
          <mxGeometry x="615" y="300" width="65" height="40" as="geometry" />
        </mxCell>
        <mxCell id="xEQAmTpkJq4A20BQkvvX-40" value="" style="endArrow=none;html=1;rounded=0;strokeColor=#000000;exitX=0.5;exitY=0;exitDx=0;exitDy=0;" edge="1" parent="1" source="xEQAmTpkJq4A20BQkvvX-39">
          <mxGeometry width="50" height="50" relative="1" as="geometry">
            <mxPoint x="605" y="250" as="sourcePoint" />
            <mxPoint x="622" y="280" as="targetPoint" />
          </mxGeometry>
        </mxCell>
        <mxCell id="xEQAmTpkJq4A20BQkvvX-45" value="" style="endArrow=none;html=1;rounded=0;strokeColor=#000000;" edge="1" parent="1">
          <mxGeometry width="50" height="50" relative="1" as="geometry">
            <mxPoint x="280" y="480" as="sourcePoint" />
            <mxPoint x="220" y="350" as="targetPoint" />
          </mxGeometry>
        </mxCell>
        <mxCell id="xEQAmTpkJq4A20BQkvvX-46" value="" style="endArrow=none;html=1;rounded=0;strokeColor=#000000;" edge="1" parent="1">
          <mxGeometry width="50" height="50" relative="1" as="geometry">
            <mxPoint x="460" y="480" as="sourcePoint" />
            <mxPoint x="395" y="340" as="targetPoint" />
          </mxGeometry>
        </mxCell>
        <mxCell id="xEQAmTpkJq4A20BQkvvX-49" value="" style="endArrow=none;html=1;rounded=0;strokeColor=#000000;" edge="1" parent="1">
          <mxGeometry width="50" height="50" relative="1" as="geometry">
            <mxPoint x="470" y="480" as="sourcePoint" />
            <mxPoint x="470" y="340" as="targetPoint" />
          </mxGeometry>
        </mxCell>
        <mxCell id="xEQAmTpkJq4A20BQkvvX-50" value="" style="endArrow=none;html=1;rounded=0;strokeColor=#000000;" edge="1" parent="1">
          <mxGeometry width="50" height="50" relative="1" as="geometry">
            <mxPoint x="600" y="480" as="sourcePoint" />
            <mxPoint x="560" y="340" as="targetPoint" />
          </mxGeometry>
        </mxCell>
        <mxCell id="xEQAmTpkJq4A20BQkvvX-51" value="" style="endArrow=none;html=1;rounded=0;strokeColor=#000000;" edge="1" parent="1">
          <mxGeometry width="50" height="50" relative="1" as="geometry">
            <mxPoint x="280" y="480" as="sourcePoint" />
            <mxPoint x="310" y="350" as="targetPoint" />
          </mxGeometry>
        </mxCell>
        <mxCell id="xEQAmTpkJq4A20BQkvvX-52" value="" style="endArrow=none;html=1;rounded=0;strokeColor=#000000;" edge="1" parent="1">
          <mxGeometry width="50" height="50" relative="1" as="geometry">
            <mxPoint x="600" y="480" as="sourcePoint" />
            <mxPoint x="640" y="340" as="targetPoint" />
          </mxGeometry>
        </mxCell>
        <mxCell id="xEQAmTpkJq4A20BQkvvX-58" value="" style="ellipse;whiteSpace=wrap;html=1;aspect=fixed;" vertex="1" parent="1">
          <mxGeometry x="111" y="542" width="40" height="40" as="geometry" />
        </mxCell>
        <mxCell id="xEQAmTpkJq4A20BQkvvX-59" value="" style="endArrow=none;html=1;rounded=0;strokeColor=#0000CC;entryX=1;entryY=0;entryDx=0;entryDy=0;exitX=0;exitY=1;exitDx=0;exitDy=0;" edge="1" parent="1" source="xEQAmTpkJq4A20BQkvvX-58" target="xEQAmTpkJq4A20BQkvvX-58">
          <mxGeometry width="50" height="50" relative="1" as="geometry">
            <mxPoint x="11" y="612" as="sourcePoint" />
            <mxPoint x="41" y="582" as="targetPoint" />
          </mxGeometry>
        </mxCell>
        <mxCell id="xEQAmTpkJq4A20BQkvvX-60" value="" style="endArrow=none;html=1;rounded=0;strokeColor=#0000CC;entryX=0.5;entryY=1;entryDx=0;entryDy=0;" edge="1" parent="1" target="xEQAmTpkJq4A20BQkvvX-58">
          <mxGeometry width="50" height="50" relative="1" as="geometry">
            <mxPoint x="131" y="642" as="sourcePoint" />
            <mxPoint x="131" y="592" as="targetPoint" />
          </mxGeometry>
        </mxCell>
        <mxCell id="xEQAmTpkJq4A20BQkvvX-61" value="" style="endArrow=none;html=1;rounded=0;strokeColor=#0000CC;exitX=0.5;exitY=0;exitDx=0;exitDy=0;" edge="1" parent="1" source="xEQAmTpkJq4A20BQkvvX-58">
          <mxGeometry width="50" height="50" relative="1" as="geometry">
            <mxPoint x="111" y="532" as="sourcePoint" />
            <mxPoint x="131" y="482" as="targetPoint" />
          </mxGeometry>
        </mxCell>
        <mxCell id="xEQAmTpkJq4A20BQkvvX-62" value="" style="endArrow=none;html=1;rounded=0;strokeColor=#000000;" edge="1" parent="1">
          <mxGeometry width="50" height="50" relative="1" as="geometry">
            <mxPoint x="80" y="640" as="sourcePoint" />
            <mxPoint x="720" y="640" as="targetPoint" />
          </mxGeometry>
        </mxCell>
        <mxCell id="xEQAmTpkJq4A20BQkvvX-63" value="OpenStack" style="text;html=1;align=center;verticalAlign=middle;resizable=0;points=[];autosize=1;strokeColor=none;fillColor=none;" vertex="1" parent="1">
          <mxGeometry x="640" y="605" width="80" height="30" as="geometry" />
        </mxCell>
        <mxCell id="xEQAmTpkJq4A20BQkvvX-64" value="" style="endArrow=none;html=1;rounded=0;strokeColor=#000000;entryX=0;entryY=0;entryDx=0;entryDy=0;exitX=1;exitY=1;exitDx=0;exitDy=0;" edge="1" parent="1" source="xEQAmTpkJq4A20BQkvvX-58" target="xEQAmTpkJq4A20BQkvvX-58">
          <mxGeometry width="50" height="50" relative="1" as="geometry">
            <mxPoint x="400" y="420" as="sourcePoint" />
            <mxPoint x="450" y="370" as="targetPoint" />
          </mxGeometry>
        </mxCell>
        <mxCell id="xEQAmTpkJq4A20BQkvvX-65" value="" style="endArrow=none;html=1;rounded=0;strokeColor=#000000;exitX=0.125;exitY=0.833;exitDx=0;exitDy=0;exitPerimeter=0;" edge="1" parent="1" source="xEQAmTpkJq4A20BQkvvX-70">
          <mxGeometry width="50" height="50" relative="1" as="geometry">
            <mxPoint x="760" y="240" as="sourcePoint" />
            <mxPoint x="1040" y="240" as="targetPoint" />
          </mxGeometry>
        </mxCell>
        <mxCell id="xEQAmTpkJq4A20BQkvvX-67" value="VKE Controller" style="rounded=1;whiteSpace=wrap;html=1;" vertex="1" parent="1">
          <mxGeometry x="870" y="150" width="90" height="60" as="geometry" />
        </mxCell>
        <mxCell id="xEQAmTpkJq4A20BQkvvX-68" value="" style="endArrow=none;html=1;rounded=0;strokeColor=#000000;exitX=0.5;exitY=0;exitDx=0;exitDy=0;" edge="1" parent="1" source="xEQAmTpkJq4A20BQkvvX-67">
          <mxGeometry width="50" height="50" relative="1" as="geometry">
            <mxPoint x="895" y="90" as="sourcePoint" />
            <mxPoint x="915" y="120" as="targetPoint" />
          </mxGeometry>
        </mxCell>
        <mxCell id="xEQAmTpkJq4A20BQkvvX-69" value="" style="endArrow=none;html=1;rounded=0;strokeColor=#000000;entryX=0.5;entryY=1;entryDx=0;entryDy=0;" edge="1" parent="1" target="xEQAmTpkJq4A20BQkvvX-67">
          <mxGeometry width="50" height="50" relative="1" as="geometry">
            <mxPoint x="915" y="240" as="sourcePoint" />
            <mxPoint x="930" y="180" as="targetPoint" />
          </mxGeometry>
        </mxCell>
        <mxCell id="xEQAmTpkJq4A20BQkvvX-70" value="Dải nội bộ" style="text;html=1;align=center;verticalAlign=middle;resizable=0;points=[];autosize=1;strokeColor=none;fillColor=none;" vertex="1" parent="1">
          <mxGeometry x="720" y="215" width="80" height="30" as="geometry" />
        </mxCell>
        <mxCell id="xEQAmTpkJq4A20BQkvvX-71" value="Floating IP" style="text;html=1;align=center;verticalAlign=middle;resizable=0;points=[];autosize=1;strokeColor=none;fillColor=none;" vertex="1" parent="1">
          <mxGeometry x="200" y="95" width="80" height="30" as="geometry" />
        </mxCell>
      </root>
    </mxGraphModel>
  </diagram>
  <diagram id="VD9qcICv9Ns8AXcK_lz1" name="new architect">
    <mxGraphModel dx="1422" dy="832" grid="1" gridSize="10" guides="1" tooltips="1" connect="1" arrows="1" fold="1" page="1" pageScale="1" pageWidth="850" pageHeight="1100" math="0" shadow="0">
      <root>
        <mxCell id="0" />
        <mxCell id="1" parent="0" />
        <mxCell id="K0BRKhfziMa2xIIojpZ7-3" value="" style="rounded=1;whiteSpace=wrap;html=1;" vertex="1" parent="1">
          <mxGeometry x="690" y="150" width="150" height="120" as="geometry" />
        </mxCell>
        <mxCell id="VzzcpgNgFsu7EwO7HFYw-1" value="" style="endArrow=none;html=1;rounded=0;strokeColor=#FF3333;" edge="1" parent="1">
          <mxGeometry width="50" height="50" relative="1" as="geometry">
            <mxPoint x="80" y="120" as="sourcePoint" />
            <mxPoint x="1040" y="120" as="targetPoint" />
            <Array as="points" />
          </mxGeometry>
        </mxCell>
        <mxCell id="VzzcpgNgFsu7EwO7HFYw-2" value="" style="endArrow=none;html=1;rounded=0;" edge="1" parent="1">
          <mxGeometry width="50" height="50" relative="1" as="geometry">
            <mxPoint x="80" y="280" as="sourcePoint" />
            <mxPoint x="525" y="280" as="targetPoint" />
            <Array as="points" />
          </mxGeometry>
        </mxCell>
        <mxCell id="VzzcpgNgFsu7EwO7HFYw-3" value="" style="endArrow=none;html=1;rounded=0;strokeColor=#0000CC;" edge="1" parent="1">
          <mxGeometry width="50" height="50" relative="1" as="geometry">
            <mxPoint x="80" y="480" as="sourcePoint" />
            <mxPoint x="525" y="482" as="targetPoint" />
            <Array as="points" />
          </mxGeometry>
        </mxCell>
        <mxCell id="VzzcpgNgFsu7EwO7HFYw-4" value="Dải Public" style="text;html=1;align=center;verticalAlign=middle;resizable=0;points=[];autosize=1;strokeColor=none;fillColor=none;" vertex="1" parent="1">
          <mxGeometry x="620" y="90" width="80" height="30" as="geometry" />
        </mxCell>
        <mxCell id="VzzcpgNgFsu7EwO7HFYw-5" value="VPC" style="text;html=1;align=center;verticalAlign=middle;resizable=0;points=[];autosize=1;strokeColor=none;fillColor=none;" vertex="1" parent="1">
          <mxGeometry x="460" y="250" width="50" height="30" as="geometry" />
        </mxCell>
        <mxCell id="VzzcpgNgFsu7EwO7HFYw-6" value="VPC Brigde" style="text;html=1;align=center;verticalAlign=middle;resizable=0;points=[];autosize=1;strokeColor=none;fillColor=none;" vertex="1" parent="1">
          <mxGeometry x="440" y="452" width="90" height="30" as="geometry" />
        </mxCell>
        <mxCell id="VzzcpgNgFsu7EwO7HFYw-7" value="" style="ellipse;whiteSpace=wrap;html=1;aspect=fixed;" vertex="1" parent="1">
          <mxGeometry x="110" y="180" width="40" height="40" as="geometry" />
        </mxCell>
        <mxCell id="VzzcpgNgFsu7EwO7HFYw-8" value="" style="endArrow=none;html=1;rounded=0;strokeColor=#0000CC;entryX=1;entryY=0;entryDx=0;entryDy=0;exitX=0;exitY=1;exitDx=0;exitDy=0;" edge="1" parent="1" source="VzzcpgNgFsu7EwO7HFYw-7" target="VzzcpgNgFsu7EwO7HFYw-7">
          <mxGeometry width="50" height="50" relative="1" as="geometry">
            <mxPoint x="10" y="250" as="sourcePoint" />
            <mxPoint x="40" y="220" as="targetPoint" />
          </mxGeometry>
        </mxCell>
        <mxCell id="VzzcpgNgFsu7EwO7HFYw-9" value="" style="endArrow=none;html=1;rounded=0;strokeColor=#0000CC;entryX=0;entryY=0;entryDx=0;entryDy=0;exitX=1;exitY=1;exitDx=0;exitDy=0;" edge="1" parent="1" source="VzzcpgNgFsu7EwO7HFYw-7" target="VzzcpgNgFsu7EwO7HFYw-7">
          <mxGeometry width="50" height="50" relative="1" as="geometry">
            <mxPoint x="40" y="250" as="sourcePoint" />
            <mxPoint x="90" y="200" as="targetPoint" />
          </mxGeometry>
        </mxCell>
        <mxCell id="VzzcpgNgFsu7EwO7HFYw-10" value="" style="endArrow=none;html=1;rounded=0;strokeColor=#0000CC;entryX=0.5;entryY=1;entryDx=0;entryDy=0;" edge="1" parent="1" target="VzzcpgNgFsu7EwO7HFYw-7">
          <mxGeometry width="50" height="50" relative="1" as="geometry">
            <mxPoint x="130" y="280" as="sourcePoint" />
            <mxPoint x="130" y="230" as="targetPoint" />
          </mxGeometry>
        </mxCell>
        <mxCell id="VzzcpgNgFsu7EwO7HFYw-11" value="" style="endArrow=none;html=1;rounded=0;strokeColor=#0000CC;exitX=0.5;exitY=0;exitDx=0;exitDy=0;" edge="1" parent="1" source="VzzcpgNgFsu7EwO7HFYw-7">
          <mxGeometry width="50" height="50" relative="1" as="geometry">
            <mxPoint x="110" y="170" as="sourcePoint" />
            <mxPoint x="130" y="120" as="targetPoint" />
          </mxGeometry>
        </mxCell>
        <mxCell id="VzzcpgNgFsu7EwO7HFYw-14" value="Load Balancer" style="rounded=1;whiteSpace=wrap;html=1;" vertex="1" parent="1">
          <mxGeometry x="210" y="170" width="70" height="40" as="geometry" />
        </mxCell>
        <mxCell id="VzzcpgNgFsu7EwO7HFYw-15" value="" style="endArrow=none;dashed=1;html=1;rounded=0;strokeColor=#0000CC;exitX=0.4;exitY=0.025;exitDx=0;exitDy=0;exitPerimeter=0;" edge="1" parent="1" source="VzzcpgNgFsu7EwO7HFYw-14">
          <mxGeometry width="50" height="50" relative="1" as="geometry">
            <mxPoint x="220" y="170" as="sourcePoint" />
            <mxPoint x="238" y="120" as="targetPoint" />
          </mxGeometry>
        </mxCell>
        <mxCell id="VzzcpgNgFsu7EwO7HFYw-20" style="edgeStyle=orthogonalEdgeStyle;rounded=0;orthogonalLoop=1;jettySize=auto;html=1;exitX=0.5;exitY=0;exitDx=0;exitDy=0;strokeColor=#000000;" edge="1" parent="1" source="VzzcpgNgFsu7EwO7HFYw-21">
          <mxGeometry relative="1" as="geometry">
            <mxPoint x="250.5" y="300" as="targetPoint" />
          </mxGeometry>
        </mxCell>
        <mxCell id="VzzcpgNgFsu7EwO7HFYw-21" value="Worker 1-1" style="rounded=1;whiteSpace=wrap;html=1;" vertex="1" parent="1">
          <mxGeometry x="195" y="300" width="65" height="40" as="geometry" />
        </mxCell>
        <mxCell id="VzzcpgNgFsu7EwO7HFYw-22" value="" style="endArrow=none;html=1;rounded=0;strokeColor=#000000;exitX=0.5;exitY=0;exitDx=0;exitDy=0;" edge="1" parent="1" source="VzzcpgNgFsu7EwO7HFYw-21">
          <mxGeometry width="50" height="50" relative="1" as="geometry">
            <mxPoint x="228" y="250" as="sourcePoint" />
            <mxPoint x="245" y="280" as="targetPoint" />
          </mxGeometry>
        </mxCell>
        <mxCell id="VzzcpgNgFsu7EwO7HFYw-23" value="Worker 1-2" style="rounded=1;whiteSpace=wrap;html=1;" vertex="1" parent="1">
          <mxGeometry x="265" y="300" width="70" height="40" as="geometry" />
        </mxCell>
        <mxCell id="VzzcpgNgFsu7EwO7HFYw-24" value="" style="endArrow=none;html=1;rounded=0;strokeColor=#000000;exitX=0.5;exitY=0;exitDx=0;exitDy=0;" edge="1" parent="1" source="VzzcpgNgFsu7EwO7HFYw-23">
          <mxGeometry width="50" height="50" relative="1" as="geometry">
            <mxPoint x="238" y="260" as="sourcePoint" />
            <mxPoint x="295" y="280" as="targetPoint" />
          </mxGeometry>
        </mxCell>
        <mxCell id="VzzcpgNgFsu7EwO7HFYw-25" value="Worker 2-1" style="rounded=1;whiteSpace=wrap;html=1;" vertex="1" parent="1">
          <mxGeometry x="355" y="300" width="70" height="40" as="geometry" />
        </mxCell>
        <mxCell id="VzzcpgNgFsu7EwO7HFYw-26" value="" style="endArrow=none;html=1;rounded=0;strokeColor=#000000;exitX=0.5;exitY=0;exitDx=0;exitDy=0;" edge="1" parent="1" source="VzzcpgNgFsu7EwO7HFYw-25">
          <mxGeometry width="50" height="50" relative="1" as="geometry">
            <mxPoint x="370" y="250" as="sourcePoint" />
            <mxPoint x="387" y="280" as="targetPoint" />
          </mxGeometry>
        </mxCell>
        <mxCell id="VzzcpgNgFsu7EwO7HFYw-27" value="Worker 2-2" style="rounded=1;whiteSpace=wrap;html=1;" vertex="1" parent="1">
          <mxGeometry x="440" y="300" width="65" height="40" as="geometry" />
        </mxCell>
        <mxCell id="VzzcpgNgFsu7EwO7HFYw-28" value="" style="endArrow=none;html=1;rounded=0;strokeColor=#000000;exitX=0.5;exitY=0;exitDx=0;exitDy=0;" edge="1" parent="1">
          <mxGeometry width="50" height="50" relative="1" as="geometry">
            <mxPoint x="472.5" y="300" as="sourcePoint" />
            <mxPoint x="447" y="280" as="targetPoint" />
          </mxGeometry>
        </mxCell>
        <mxCell id="VzzcpgNgFsu7EwO7HFYw-30" value="" style="endArrow=none;html=1;rounded=0;strokeColor=#000000;" edge="1" parent="1">
          <mxGeometry width="50" height="50" relative="1" as="geometry">
            <mxPoint x="285" y="480" as="sourcePoint" />
            <mxPoint x="220" y="340" as="targetPoint" />
          </mxGeometry>
        </mxCell>
        <mxCell id="VzzcpgNgFsu7EwO7HFYw-31" value="" style="endArrow=none;html=1;rounded=0;strokeColor=#000000;" edge="1" parent="1">
          <mxGeometry width="50" height="50" relative="1" as="geometry">
            <mxPoint x="295" y="480" as="sourcePoint" />
            <mxPoint x="295" y="340" as="targetPoint" />
          </mxGeometry>
        </mxCell>
        <mxCell id="VzzcpgNgFsu7EwO7HFYw-32" value="" style="endArrow=none;html=1;rounded=0;strokeColor=#000000;" edge="1" parent="1">
          <mxGeometry width="50" height="50" relative="1" as="geometry">
            <mxPoint x="425" y="480" as="sourcePoint" />
            <mxPoint x="385" y="340" as="targetPoint" />
          </mxGeometry>
        </mxCell>
        <mxCell id="VzzcpgNgFsu7EwO7HFYw-34" value="" style="endArrow=none;html=1;rounded=0;strokeColor=#000000;" edge="1" parent="1">
          <mxGeometry width="50" height="50" relative="1" as="geometry">
            <mxPoint x="425" y="480" as="sourcePoint" />
            <mxPoint x="465" y="340" as="targetPoint" />
          </mxGeometry>
        </mxCell>
        <mxCell id="VzzcpgNgFsu7EwO7HFYw-35" value="" style="ellipse;whiteSpace=wrap;html=1;aspect=fixed;" vertex="1" parent="1">
          <mxGeometry x="111" y="542" width="40" height="40" as="geometry" />
        </mxCell>
        <mxCell id="VzzcpgNgFsu7EwO7HFYw-36" value="" style="endArrow=none;html=1;rounded=0;strokeColor=#0000CC;entryX=1;entryY=0;entryDx=0;entryDy=0;exitX=0;exitY=1;exitDx=0;exitDy=0;" edge="1" parent="1" source="VzzcpgNgFsu7EwO7HFYw-35" target="VzzcpgNgFsu7EwO7HFYw-35">
          <mxGeometry width="50" height="50" relative="1" as="geometry">
            <mxPoint x="11" y="612" as="sourcePoint" />
            <mxPoint x="41" y="582" as="targetPoint" />
          </mxGeometry>
        </mxCell>
        <mxCell id="VzzcpgNgFsu7EwO7HFYw-37" value="" style="endArrow=none;html=1;rounded=0;strokeColor=#0000CC;entryX=0.5;entryY=1;entryDx=0;entryDy=0;" edge="1" parent="1" target="VzzcpgNgFsu7EwO7HFYw-35">
          <mxGeometry width="50" height="50" relative="1" as="geometry">
            <mxPoint x="131" y="642" as="sourcePoint" />
            <mxPoint x="131" y="592" as="targetPoint" />
          </mxGeometry>
        </mxCell>
        <mxCell id="VzzcpgNgFsu7EwO7HFYw-38" value="" style="endArrow=none;html=1;rounded=0;strokeColor=#0000CC;exitX=0.5;exitY=0;exitDx=0;exitDy=0;" edge="1" parent="1" source="VzzcpgNgFsu7EwO7HFYw-35">
          <mxGeometry width="50" height="50" relative="1" as="geometry">
            <mxPoint x="111" y="532" as="sourcePoint" />
            <mxPoint x="131" y="482" as="targetPoint" />
          </mxGeometry>
        </mxCell>
        <mxCell id="VzzcpgNgFsu7EwO7HFYw-39" value="" style="endArrow=none;html=1;rounded=0;strokeColor=#000000;" edge="1" parent="1">
          <mxGeometry width="50" height="50" relative="1" as="geometry">
            <mxPoint x="80" y="640" as="sourcePoint" />
            <mxPoint x="720" y="640" as="targetPoint" />
          </mxGeometry>
        </mxCell>
        <mxCell id="VzzcpgNgFsu7EwO7HFYw-40" value="OpenStack" style="text;html=1;align=center;verticalAlign=middle;resizable=0;points=[];autosize=1;strokeColor=none;fillColor=none;" vertex="1" parent="1">
          <mxGeometry x="640" y="605" width="80" height="30" as="geometry" />
        </mxCell>
        <mxCell id="VzzcpgNgFsu7EwO7HFYw-41" value="" style="endArrow=none;html=1;rounded=0;strokeColor=#000000;entryX=0;entryY=0;entryDx=0;entryDy=0;exitX=1;exitY=1;exitDx=0;exitDy=0;" edge="1" parent="1" source="VzzcpgNgFsu7EwO7HFYw-35" target="VzzcpgNgFsu7EwO7HFYw-35">
          <mxGeometry width="50" height="50" relative="1" as="geometry">
            <mxPoint x="400" y="420" as="sourcePoint" />
            <mxPoint x="450" y="370" as="targetPoint" />
          </mxGeometry>
        </mxCell>
        <mxCell id="VzzcpgNgFsu7EwO7HFYw-42" value="" style="endArrow=none;html=1;rounded=0;strokeColor=#000000;exitX=0.125;exitY=0.833;exitDx=0;exitDy=0;exitPerimeter=0;" edge="1" parent="1" source="VzzcpgNgFsu7EwO7HFYw-46">
          <mxGeometry width="50" height="50" relative="1" as="geometry">
            <mxPoint x="760" y="299" as="sourcePoint" />
            <mxPoint x="1040" y="299" as="targetPoint" />
          </mxGeometry>
        </mxCell>
        <mxCell id="VzzcpgNgFsu7EwO7HFYw-43" value="VKE Controller" style="rounded=1;whiteSpace=wrap;html=1;" vertex="1" parent="1">
          <mxGeometry x="870" y="170" width="90" height="60" as="geometry" />
        </mxCell>
        <mxCell id="VzzcpgNgFsu7EwO7HFYw-44" value="" style="endArrow=none;html=1;rounded=0;strokeColor=#000000;exitX=0.5;exitY=0;exitDx=0;exitDy=0;" edge="1" parent="1" source="VzzcpgNgFsu7EwO7HFYw-43">
          <mxGeometry width="50" height="50" relative="1" as="geometry">
            <mxPoint x="895" y="90" as="sourcePoint" />
            <mxPoint x="915" y="120" as="targetPoint" />
          </mxGeometry>
        </mxCell>
        <mxCell id="VzzcpgNgFsu7EwO7HFYw-45" value="" style="endArrow=none;html=1;rounded=0;strokeColor=#000000;entryX=0.5;entryY=1;entryDx=0;entryDy=0;" edge="1" parent="1" target="VzzcpgNgFsu7EwO7HFYw-43">
          <mxGeometry width="50" height="50" relative="1" as="geometry">
            <mxPoint x="915" y="299" as="sourcePoint" />
            <mxPoint x="915" y="269" as="targetPoint" />
          </mxGeometry>
        </mxCell>
        <mxCell id="VzzcpgNgFsu7EwO7HFYw-46" value="Dải nội bộ" style="text;html=1;align=center;verticalAlign=middle;resizable=0;points=[];autosize=1;strokeColor=none;fillColor=none;" vertex="1" parent="1">
          <mxGeometry x="600" y="270" width="80" height="30" as="geometry" />
        </mxCell>
        <mxCell id="VzzcpgNgFsu7EwO7HFYw-47" value="Floating IP" style="text;html=1;align=center;verticalAlign=middle;resizable=0;points=[];autosize=1;strokeColor=none;fillColor=none;" vertex="1" parent="1">
          <mxGeometry x="200" y="95" width="80" height="30" as="geometry" />
        </mxCell>
        <mxCell id="K0BRKhfziMa2xIIojpZ7-1" value="Master 1" style="rounded=1;whiteSpace=wrap;html=1;" vertex="1" parent="1">
          <mxGeometry x="770" y="219" width="55" height="40" as="geometry" />
        </mxCell>
        <mxCell id="K0BRKhfziMa2xIIojpZ7-2" value="Master 2" style="rounded=1;whiteSpace=wrap;html=1;" vertex="1" parent="1">
          <mxGeometry x="700" y="219" width="55" height="40" as="geometry" />
        </mxCell>
        <mxCell id="K0BRKhfziMa2xIIojpZ7-4" value="Load Balancer" style="rounded=1;whiteSpace=wrap;html=1;" vertex="1" parent="1">
          <mxGeometry x="725" y="160" width="70" height="40" as="geometry" />
        </mxCell>
        <mxCell id="K0BRKhfziMa2xIIojpZ7-5" value="" style="endArrow=none;dashed=1;html=1;dashPattern=1 3;strokeWidth=2;rounded=0;strokeColor=#000000;entryX=0.5;entryY=1;entryDx=0;entryDy=0;exitX=0.5;exitY=0;exitDx=0;exitDy=0;" edge="1" parent="1" source="K0BRKhfziMa2xIIojpZ7-2" target="K0BRKhfziMa2xIIojpZ7-4">
          <mxGeometry width="50" height="50" relative="1" as="geometry">
            <mxPoint x="590" y="230" as="sourcePoint" />
            <mxPoint x="640" y="180" as="targetPoint" />
          </mxGeometry>
        </mxCell>
        <mxCell id="K0BRKhfziMa2xIIojpZ7-6" value="" style="endArrow=none;dashed=1;html=1;dashPattern=1 3;strokeWidth=2;rounded=0;strokeColor=#000000;exitX=0.5;exitY=0;exitDx=0;exitDy=0;" edge="1" parent="1" source="K0BRKhfziMa2xIIojpZ7-1">
          <mxGeometry width="50" height="50" relative="1" as="geometry">
            <mxPoint x="737.5" y="229" as="sourcePoint" />
            <mxPoint x="760" y="200" as="targetPoint" />
          </mxGeometry>
        </mxCell>
        <mxCell id="K0BRKhfziMa2xIIojpZ7-8" value="" style="endArrow=none;html=1;rounded=0;strokeColor=#000000;entryX=0.5;entryY=1;entryDx=0;entryDy=0;" edge="1" parent="1" target="K0BRKhfziMa2xIIojpZ7-3">
          <mxGeometry width="50" height="50" relative="1" as="geometry">
            <mxPoint x="760" y="300" as="sourcePoint" />
            <mxPoint x="450" y="390" as="targetPoint" />
          </mxGeometry>
        </mxCell>
        <mxCell id="K0BRKhfziMa2xIIojpZ7-9" value="User controll plane" style="text;html=1;align=center;verticalAlign=middle;resizable=0;points=[];autosize=1;strokeColor=none;fillColor=none;" vertex="1" parent="1">
          <mxGeometry x="570" y="160" width="120" height="30" as="geometry" />
        </mxCell>
      </root>
    </mxGraphModel>
  </diagram>
</mxfile>
